<svg width="800" height="600" viewBox="0 0 800 600" xmlns="http://www.w3.org/2000/svg">
<rect width="800" height="600" fill="#FFFFFF"/>
<rect x="0" y="0" width="800" height="40" rx="0" fill="#F1EFEC" opacity="1"/><circle cx="20" cy="20" r="5" fill="#E2665B"/><circle cx="38" cy="20" r="5" fill="#E8C14A"/><circle cx="56" cy="20" r="5" fill="#5FBE64"/><rect x="120" y="10" width="400" height="20" rx="6" fill="#fff" opacity="1"/><rect x="0" y="40" width="800" height="64" rx="0" fill="#FFFFFF" opacity="1"/><rect x="0" y="103" width="800" height="1" rx="0" fill="#ECEAE7" opacity="1"/><circle cx="46" cy="72" r="12" fill="#7C3AED"/><text x="70" y="78" font-family="Arial, sans-serif" font-size="16" font-weight="700" fill="#1B1A1F" text-anchor="start">Studio</text><rect x="470" y="60" width="60" height="24" rx="12" fill="#F4F2EF" opacity="1"/><rect x="540" y="60" width="60" height="24" rx="12" fill="#F4F2EF" opacity="1"/><rect x="610" y="60" width="60" height="24" rx="12" fill="#F4F2EF" opacity="1"/><rect x="690" y="58" width="80" height="28" rx="14" fill="#7C3AED" opacity="1"/>
    <defs>
      <linearGradient id="g7C3AED" x1="0" y1="0" x2="1" y2="1">
        <stop offset="0" stop-color="#7C3AED"/>
        <stop offset="1" stop-color="#EC4899"/>
      </linearGradient>
    </defs>
    <rect x="0" y="104" width="800" height="260" rx="0" fill="url(#g7C3AED)" opacity="1"/>
    <text x="60" y="220" font-family="Arial, sans-serif" font-size="34" font-weight="700" fill="#fff" text-anchor="start">Studio Kreatif</text>
    <text x="60" y="255" font-family="Arial, sans-serif" font-size="15" font-weight="400" fill="rgba(255,255,255,0.85)" text-anchor="start">Ruang kreativitas digital</text>
    <rect x="60" y="285" width="150" height="40" rx="20" fill="#ffffff" opacity="1"/>
    <rect x="60" y="390" width="210" height="150" rx="14" fill="#FAFAF9" opacity="1"/><rect x="60" y="390" width="210" height="90" rx="14" fill="#F1EFEC" opacity="1"/><rect x="76" y="494" width="120" height="12" rx="6" fill="#DDD9D4" opacity="1"/><rect x="76" y="516" width="80" height="10" rx="5" fill="#EC4899" opacity="1"/><rect x="300" y="390" width="210" height="150" rx="14" fill="#FAFAF9" opacity="1"/><rect x="300" y="390" width="210" height="90" rx="14" fill="#F1EFEC" opacity="1"/><rect x="316" y="494" width="120" height="12" rx="6" fill="#DDD9D4" opacity="1"/><rect x="316" y="516" width="80" height="10" rx="5" fill="#EC4899" opacity="1"/><rect x="540" y="390" width="210" height="150" rx="14" fill="#FAFAF9" opacity="1"/><rect x="540" y="390" width="210" height="90" rx="14" fill="#F1EFEC" opacity="1"/><rect x="556" y="494" width="120" height="12" rx="6" fill="#DDD9D4" opacity="1"/><rect x="556" y="516" width="80" height="10" rx="5" fill="#EC4899" opacity="1"/><rect x="0" y="530" width="800" height="70" rx="0" fill="#1B1A1F" opacity="1"/><text x="60" y="570" font-family="Arial, sans-serif" font-size="13" font-weight="400" fill="#ffffffaa" text-anchor="start">TRIA LAB Preview</text>
</svg>